<?xml version="1.0" encoding="UTF-8" standalone="no"?>
<svg
   width="143"
   height="40"
   version="1.1"
   id="svg1"
   sodipodi:docname="svg.svg"
   inkscape:version="1.4.2 (f4327f4, 2025-05-13)"
   xmlns:inkscape="http://www.inkscape.org/namespaces/inkscape"
   xmlns:sodipodi="http://sodipodi.sourceforge.net/DTD/sodipodi-0.dtd"
   xmlns="http://www.w3.org/2000/svg"
   xmlns:svg="http://www.w3.org/2000/svg">
  <defs
     id="defs1" />
  <sodipodi:namedview
     id="namedview1"
     pagecolor="#ffffff"
     bordercolor="#000000"
     borderopacity="0.25"
     inkscape:showpageshadow="2"
     inkscape:pageopacity="0.0"
     inkscape:pagecheckerboard="0"
     inkscape:deskcolor="#d1d1d1"
     showgrid="false"
     inkscape:zoom="9.6783217"
     inkscape:cx="71.5"
     inkscape:cy="19.993136"
     inkscape:window-width="1920"
     inkscape:window-height="991"
     inkscape:window-x="-9"
     inkscape:window-y="-9"
     inkscape:window-maximized="1"
     inkscape:current-layer="svg1" />
  <g
     id="g1"
     transform="translate(1.3432081,1.8598266)">
    <title
       id="title1">Layer 1</title>
    <path
       d="m 18.73109,27.651909 q -1.144,0 -2.09,-0.66 -0.924,-0.638 -1.474,-1.848 -0.55,-1.232 -0.55,-2.948 0,-1.694 0.528,-3.432 0.528,-1.738 1.43,-3.322 0.924,-1.584 2.09,-2.816 1.166,-1.254 2.442,-1.98 1.298,-0.7259997 2.552,-0.7259997 0.836,0 1.342,0.3519997 0.506,0.352 0.726,0.924 0.22,0.55 0.22,1.21 0,0.77 -0.264,1.518 -0.264,0.726 -0.704,1.21 -0.44,0.484 -0.968,0.484 -0.176,0 -0.374,-0.11 -0.176,-0.11 -0.308,-0.396 0.308,-0.22 0.704,-0.792 0.418,-0.572 0.704,-1.276 0.308,-0.704 0.308,-1.298 0,-0.506 -0.308,-0.836 -0.286,-0.33 -1.012,-0.33 -0.946,0 -1.98,0.77 -1.012,0.77 -1.98,2.068 -0.946,1.276 -1.716,2.86 -0.77,1.584 -1.232,3.234 -0.44,1.65 -0.44,3.124 0,2.002 0.836,3.124 0.836,1.144 2.112,1.144 0.858,0 1.628,-0.638 0.77,-0.616 1.364,-1.606 0.594,-1.012 0.946,-2.178 0.374,-1.166 0.462,-2.244 -0.814,-0.176 -1.32,-0.22 -0.506,-0.066 -0.946,-0.066 -0.286,0 -0.616,0.022 -0.308,0 -0.726,0 0.154,-0.638 0.528,-0.88 0.396,-0.264 0.968,-0.264 0.616,0 1.276,0.22 0.682,0.198 1.32,0.44 0.638,0.242 1.122,0.374 l -0.154,0.704 q -0.418,1.1 -0.682,1.936 -0.264,0.814 -0.418,1.452 -0.132,0.616 -0.198,1.1 -0.044,0.484 -0.044,0.88 0,0.44 0.022,0.858 0.044,0.418 0.066,0.858 -0.352,-0.154 -0.638,-0.374 -0.264,-0.198 -0.418,-0.506 -0.132,-0.308 -0.132,-0.704 0,-0.242 0.022,-0.484 0.044,-0.242 0.132,-0.528 -0.792,1.1 -1.826,1.848 -1.034,0.748 -2.332,0.748 z m 17.270019,-0.836 q -1.342,0 -2.002,-0.814 -0.638,-0.814 -0.638,-1.958 -0.946,1.254 -2.178,1.958 -1.232,0.704 -2.486,0.704 -1.342,0 -2.024,-0.748 -0.66,-0.726 -0.66,-1.804 0,-0.99 0.484,-2.09 0.506,-1.1 1.32,-2.068 0.836,-0.968 1.826,-1.562 0.99,-0.616 1.958,-0.616 0.506,0 0.924,0.264 0.44,0.264 0.44,1.078 0,0.836 -0.506,1.584 -0.484,0.726 -1.298,1.298 -0.792,0.572 -1.76,0.946 -0.946,0.352 -1.892,0.44 -0.044,0.22 -0.066,0.418 -0.022,0.198 -0.022,0.374 0,0.44 0.154,0.88 0.154,0.418 0.528,0.682 0.374,0.286 1.056,0.286 1.166,0 2.31,-0.814 1.144,-0.836 2.002,-2.046 0.198,-0.902 0.704,-1.804 0.506,-0.902 1.21,-1.628 0.726,-0.748 1.562,-1.188 0.836,-0.462 1.694,-0.462 0.506,0 0.924,0.264 0.44,0.264 0.44,1.078 0,1.122 -0.77,1.98 -0.748,0.836 -1.936,1.342 -1.188,0.506 -2.442,0.638 -0.044,0.22 -0.066,0.418 -0.022,0.198 -0.022,0.374 0,0.44 0.132,0.902 0.154,0.462 0.506,0.748 0.374,0.308 1.056,0.308 0.946,0 1.892,-0.55 0.946,-0.572 1.76,-1.474 0.814,-0.924 1.364,-1.98 l 0.264,0.198 q -0.594,1.32 -1.54,2.332 -0.924,0.99 -2.024,1.54 -1.078,0.572 -2.178,0.572 z m -8.382,-3.806 q 0.594,-0.198 1.342,-0.572 0.748,-0.396 1.43,-0.924 0.704,-0.528 1.144,-1.166 0.462,-0.638 0.462,-1.342 0,-0.242 -0.088,-0.374 -0.088,-0.132 -0.374,-0.132 -0.528,0 -1.122,0.418 -0.594,0.396 -1.144,1.056 -0.55,0.66 -0.99,1.452 -0.44,0.792 -0.66,1.584 z m 7.348,0 q 0.594,-0.198 1.298,-0.528 0.704,-0.33 1.342,-0.77 0.638,-0.462 1.056,-1.034 0.418,-0.594 0.418,-1.298 0,-0.242 -0.11,-0.396 -0.11,-0.176 -0.396,-0.176 -0.704,0 -1.43,0.616 -0.704,0.616 -1.298,1.584 -0.572,0.946 -0.88,2.002 z m 12.583984,3.564 q -0.616,0 -1.056,-0.418 -0.44,-0.418 -0.704,-1.056 -0.242,-0.638 -0.374,-1.298 -0.11,-0.682 -0.11,-1.188 0.242,0 0.704,-0.11 0.462,-0.132 0.946,-0.374 0.484,-0.264 0.814,-0.66 0.352,-0.418 0.352,-0.968 0,-0.462 -0.33,-0.726 -0.33,-0.264 -0.77,-0.264 -0.682,0 -1.276,0.484 -0.594,0.462 -1.078,1.232 -0.462,0.748 -0.836,1.606 -0.374,0.858 -0.638,1.628 -0.264,0.77 -0.44,1.276 -0.132,0.396 -0.374,0.528 -0.242,0.154 -0.506,0.154 -0.374,0 -0.55,-0.308 -0.154,-0.308 -0.198,-0.77 -0.022,-0.484 -0.022,-0.99 0,-1.144 0.374,-2.64 0.374,-1.496 0.99,-3.102 0.638,-1.628 1.386,-3.146 0.748,-1.518 1.496,-2.75 0.748,-1.232 1.386,-1.958 0.638,-0.726 1.034,-0.726 0.308,0 0.484,0.418 0.198,0.418 0.198,1.012 0,0.748 -0.33,1.694 -0.33,0.924 -0.946,1.87 -0.594,0.946 -1.43,1.782 -0.814,0.836 -1.782,1.43 -0.726,1.782 -1.1,3.476 -0.352,1.672 -0.352,2.816 0.352,-0.88 0.836,-1.936 0.506,-1.056 1.144,-2.024 0.638,-0.968 1.386,-1.584 0.748,-0.616 1.562,-0.616 0.814,0 1.386,0.572 0.572,0.572 0.572,1.386 0,0.704 -0.374,1.21 -0.352,0.484 -0.88,0.792 -0.506,0.286 -1.034,0.44 -0.506,0.132 -0.836,0.132 0.022,0.176 0.132,0.638 0.11,0.462 0.308,0.968 0.22,0.506 0.528,0.88 0.308,0.352 0.748,0.352 0.638,0 1.21,-0.484 0.572,-0.484 1.078,-1.276 0.528,-0.814 0.968,-1.826 l 0.22,0.22 q -0.308,1.078 -0.946,2.046 -0.638,0.946 -1.43,1.54 -0.77,0.616 -1.54,0.616 z m -3.212,-9.218 q 1.012,-0.814 1.76,-1.848 0.77,-1.034 1.188,-1.98 0.418,-0.968 0.418,-1.518 0,-0.11 -0.022,-0.154 0,-0.044 -0.044,-0.044 -0.22,0 -0.77,0.77 -0.528,0.77 -1.21,2.046 -0.682,1.254 -1.32,2.728 z m 8.865981,9.35 q -1.342,0 -2.024,-0.748 -0.66,-0.726 -0.66,-1.804 0,-0.99 0.484,-2.09 0.506,-1.1 1.32,-2.068 0.836,-0.968 1.826,-1.562 0.99,-0.616 1.958,-0.616 0.506,0 0.924,0.264 0.44,0.264 0.44,1.078 0,0.836 -0.506,1.584 -0.484,0.726 -1.298,1.298 -0.792,0.572 -1.76,0.946 -0.946,0.352 -1.892,0.44 -0.044,0.22 -0.066,0.418 -0.022,0.198 -0.022,0.374 0,0.33 0.066,0.66 0.088,0.33 0.286,0.616 0.198,0.264 0.528,0.418 0.352,0.154 0.858,0.154 0.946,0 1.87,-0.528 0.924,-0.55 1.716,-1.43 0.792,-0.88 1.342,-1.936 l 0.264,0.198 q -0.594,1.32 -1.518,2.288 -0.902,0.968 -1.98,1.496 -1.056,0.55 -2.156,0.55 z m -1.078,-3.696 q 0.594,-0.198 1.342,-0.572 0.748,-0.396 1.43,-0.924 0.704,-0.528 1.144,-1.166 0.462,-0.638 0.462,-1.342 0,-0.242 -0.088,-0.374 -0.088,-0.132 -0.374,-0.132 -0.528,0 -1.122,0.418 -0.594,0.396 -1.144,1.056 -0.55,0.66 -0.99,1.452 -0.44,0.792 -0.66,1.584 z m 9.834004,3.3 q -0.748,0 -1.188,-0.396 -0.418,-0.396 -0.418,-1.034 0,-0.66 0.308,-1.386 0.308,-0.726 0.594,-1.43 0.308,-0.726 0.308,-1.298 0,-0.704 -0.418,-1.034 -0.396,-0.352 -0.814,-0.638 -0.506,1.298 -1.056,2.464 -0.55,1.166 -0.902,1.76 l -0.198,-0.374 q 0.308,-0.572 0.792,-1.672 0.506,-1.1 0.99,-2.508 -0.22,-0.22 -0.22,-0.528 0,-0.66 0.374,-1.078 0.374,-0.418 0.55,-0.418 0.242,0 0.264,0.22 0.044,0.198 0.044,0.308 0,0.11 -0.132,0.44 -0.11,0.308 -0.11,0.374 0,0.308 0.33,0.572 0.352,0.242 0.792,0.572 0.44,0.308 0.77,0.77 0.352,0.44 0.352,1.144 0,0.66 -0.286,1.342 -0.264,0.682 -0.55,1.298 -0.264,0.616 -0.264,1.078 0,0.396 0.198,0.528 0.198,0.132 0.462,0.132 0.528,0 1.078,-0.33 0.572,-0.33 1.1,-0.836 0.528,-0.506 0.946,-1.056 0.418,-0.572 0.616,-1.056 l 0.286,0.22 q -0.418,0.924 -1.144,1.826 -0.726,0.88 -1.628,1.452 -0.88,0.572 -1.826,0.572 z m 5.719991,0.44 q -0.946,0 -1.452,-0.55 -0.506,-0.55 -0.506,-1.628 0,-0.968 0.352,-2.376 0.374,-1.43 0.924,-2.926 -0.22,-0.044 -0.418,-0.066 -0.198,-0.044 -0.374,-0.11 v -0.396 q 0.176,0.022 0.418,0.044 0.242,0.022 0.55,0.044 0.462,-1.188 0.99,-2.288 0.528,-1.122 1.034,-1.98 0.528,-0.88 0.99,-1.386 0.484,-0.528 0.814,-0.528 0.176,0 0.308,0.132 0.154,0.11 0.154,0.352 0,0.374 -0.462,1.232 -0.462,0.836 -1.144,2.002 -0.682,1.166 -1.32,2.53 0.198,0 0.396,0 0.22,0 0.418,0 0.726,0 1.518,-0.022 0.814,-0.022 1.628,-0.11 v 0.396 q -1.21,0.132 -2.178,0.198 -0.946,0.066 -1.694,0.066 -0.088,0 -0.176,0 -0.066,0 -0.154,0 -0.506,1.166 -0.858,2.398 -0.352,1.232 -0.352,2.398 0,0.946 0.286,1.364 0.286,0.396 0.946,0.396 1.144,0 2.244,-1.012 1.1,-1.012 1.936,-2.75 l 0.286,0.22 q -0.528,1.232 -1.342,2.222 -0.792,0.99 -1.76,1.562 -0.968,0.572 -2.002,0.572 z m 5.455996,0.022 q -0.682,0 -1.144,-0.462 -0.484,-0.44 -0.484,-1.364 0,-0.792 0.352,-1.694 0.352,-0.924 0.968,-1.804 0.616,-0.902 1.386,-1.628 0.792,-0.748 1.65,-1.188 0.88,-0.44 1.738,-0.44 0.858,0 1.43,0.462 0.572,0.44 0.572,1.188 0,0.55 -0.308,0.748 -0.286,0.198 -0.77,0.198 0.044,-0.176 0.066,-0.374 0.044,-0.22 0.044,-0.396 0,-0.506 -0.242,-0.858 -0.242,-0.374 -0.836,-0.374 -0.616,0 -1.254,0.44 -0.638,0.418 -1.232,1.144 -0.594,0.704 -1.056,1.54 -0.462,0.836 -0.726,1.65 -0.264,0.814 -0.264,1.452 0,0.858 0.594,0.858 0.506,0 1.1,-0.462 0.594,-0.484 1.21,-1.21 0.638,-0.748 1.21,-1.54 0.572,-0.792 1.012,-1.452 0.088,-0.132 0.11,-0.132 0.132,0.022 0.33,0.088 0.22,0.066 0.374,0.176 0.154,0.11 0.154,0.286 0,0.198 -0.198,0.55 -0.198,0.33 -0.44,0.77 -0.242,0.44 -0.44,0.902 -0.198,0.44 -0.198,0.836 0,0.33 0.176,0.66 0.176,0.308 0.572,0.308 0.594,0 1.562,-0.858 0.968,-0.88 1.958,-2.618 l 0.22,0.22 q -0.462,1.188 -1.188,2.09 -0.726,0.902 -1.562,1.408 -0.814,0.506 -1.606,0.506 -0.814,0 -1.21,-0.484 -0.374,-0.484 -0.374,-1.056 0,-0.132 0.022,-0.286 0.022,-0.176 0.044,-0.352 -0.946,1.276 -1.738,1.914 -0.77,0.638 -1.584,0.638 z m 10.054018,-0.33 q -0.946,0 -1.342,-0.594 -0.396,-0.572 -0.396,-1.408 0,-0.682 0.22,-1.408 0.22,-0.726 0.572,-1.364 0.374,-0.638 0.814,-1.034 0.462,-0.396 0.924,-0.396 0.11,0 0.22,0.044 0.132,0.022 0.242,0.066 -0.198,0.176 -0.484,0.66 -0.264,0.462 -0.506,1.078 -0.242,0.594 -0.418,1.188 -0.154,0.594 -0.154,1.012 0,0.66 0.22,0.968 0.22,0.286 0.572,0.286 0.462,0 1.1,-0.484 0.638,-0.506 1.254,-1.276 -0.616,-0.506 -0.968,-1.32 -0.33,-0.836 -0.33,-1.694 0,-0.726 0.242,-1.364 0.264,-0.638 0.748,-1.012 0.484,-0.396 1.166,-0.396 0.902,0 1.21,0.484 0.308,0.484 0.308,1.21 0,0.858 -0.418,1.914 -0.418,1.034 -1.056,2.002 0.396,0.22 0.836,0.22 0.352,0 0.792,-0.132 0.44,-0.154 0.858,-0.506 0.44,-0.352 0.704,-0.946 l 0.264,0.22 q -0.44,1.034 -1.254,1.474 -0.792,0.418 -1.518,0.418 -0.286,0 -0.55,-0.044 -0.264,-0.066 -0.506,-0.176 -0.748,0.99 -1.65,1.65 -0.88,0.66 -1.716,0.66 z m 3.234,-3.234 q 0.55,-0.814 0.902,-1.694 0.374,-0.902 0.374,-1.694 0,-0.638 -0.198,-0.924 -0.176,-0.308 -0.462,-0.308 -0.44,0 -0.902,0.638 -0.462,0.638 -0.462,1.606 0,0.638 0.176,1.298 0.198,0.638 0.572,1.078 z"
       id="svg_111"
       style="font-style:italic;font-weight:bold;font-size:22px;font-family:'Dancing Script';stroke-width:0;stroke-dasharray:5, 2, 2, 2, 2, 2"
       transform="matrix(1.75029,-1.7091359e-4,1.3854792e-4,1.41884,-20.863592,-7.2090915)"
       aria-label="Geekertao" />
  </g>
</svg>
