<svg width="319.287" height="109.766" viewBox="0 0 319.287 109.766" xmlns="http://www.w3.org/2000/svg"><g id="svgGroup" stroke-linecap="round" fill-rule="evenodd" font-size="9pt" stroke="#000" stroke-width="2" fill="none" style="stroke:#000;stroke-width:2;fill:none"><path d="M 90.479 66.797 Q 91.504 68.213 93.115 69.068 Q 94.727 69.922 97.071 69.922 Q 99.463 69.922 101.416 68.775 Q 103.369 67.627 104.981 65.772 Q 106.592 63.916 107.862 61.621 Q 109.131 59.326 110.156 57.031 A 2.021 2.021 0 0 1 110.428 56.587 A 1.619 1.619 0 0 1 110.546 56.456 A 14.655 14.655 0 0 1 110.864 55.127 Q 111.475 53.028 112.622 51.465 Q 113.77 49.903 115.357 49.024 Q 116.944 48.145 118.848 48.145 Q 119.971 48.145 121.07 48.609 Q 122.168 49.072 123.047 49.927 Q 123.926 50.781 124.463 52.002 Q 125 53.223 125 54.785 Q 125 56.787 124.317 58.545 Q 123.633 60.303 122.437 61.817 Q 121.24 63.33 119.58 64.6 Q 117.92 65.869 116.016 66.797 Q 117.041 68.213 118.653 69.068 Q 120.264 69.922 122.608 69.922 Q 125 69.922 126.953 68.775 Q 128.906 67.627 130.518 65.772 Q 132.129 63.916 133.399 61.621 Q 134.668 59.326 135.694 57.031 A 2.021 2.021 0 0 1 135.965 56.587 A 1.619 1.619 0 0 1 136.014 56.529 A 1094.713 1094.713 0 0 0 136.078 52.515 A 1296.865 1296.865 0 0 0 136.133 48.072 Q 136.182 43.506 136.28 38.672 Q 136.377 33.838 136.426 29.248 Q 136.475 24.658 136.548 20.532 Q 136.621 16.406 136.67 13.208 Q 136.719 10.01 136.743 7.984 Q 136.768 5.957 136.768 5.567 Q 136.768 4.785 137.354 4.273 Q 137.94 3.76 138.623 3.76 Q 139.405 3.76 139.942 4.273 Q 140.479 4.785 140.479 5.615 Q 140.479 5.713 140.454 7.544 Q 140.43 9.375 140.381 12.451 Q 140.332 15.528 140.259 19.629 Q 140.186 23.731 140.113 28.345 Q 140.039 32.959 139.966 37.842 Q 139.893 42.725 139.82 47.363 Q 139.746 52.002 139.697 56.201 Q 139.649 60.401 139.6 63.623 Q 140.381 61.133 141.602 58.374 Q 142.822 55.615 144.483 53.272 Q 146.143 50.928 148.218 49.414 Q 150.293 47.901 152.832 47.901 Q 154.248 47.901 155.469 48.413 Q 156.69 48.926 157.593 49.829 Q 158.496 50.733 159.009 51.953 Q 159.522 53.174 159.522 54.59 Q 159.522 56.787 158.545 58.618 Q 157.569 60.449 155.957 61.89 Q 154.346 63.33 152.271 64.405 Q 150.196 65.479 147.998 66.162 Q 148.828 68.018 150.733 69.116 Q 152.637 70.215 155.03 70.215 Q 155.762 70.215 157.422 69.995 Q 159.082 69.776 161.255 68.53 Q 163.428 67.285 165.869 64.6 Q 168.311 61.914 170.606 57.031 A 2.021 2.021 0 0 1 170.877 56.587 A 1.619 1.619 0 0 1 170.996 56.456 A 14.655 14.655 0 0 1 171.314 55.127 Q 171.924 53.028 173.072 51.465 Q 174.219 49.903 175.806 49.024 Q 177.393 48.145 179.297 48.145 Q 180.42 48.145 181.519 48.609 Q 182.617 49.072 183.496 49.927 Q 184.375 50.781 184.912 52.002 Q 185.449 53.223 185.449 54.785 Q 185.449 56.787 184.766 58.545 Q 184.082 60.303 182.886 61.817 Q 181.69 63.33 180.03 64.6 Q 178.369 65.869 176.465 66.797 Q 177.49 68.213 179.102 69.068 Q 180.713 69.922 183.057 69.922 Q 185.449 69.922 187.403 68.775 Q 189.356 67.627 190.967 65.772 Q 192.578 63.916 193.848 61.621 Q 195.117 59.326 196.143 57.031 A 2.021 2.021 0 0 1 196.415 56.587 A 1.619 1.619 0 0 1 196.458 56.535 A 9.608 9.608 0 0 0 196.562 56.239 Q 196.682 55.876 196.826 55.371 Q 197.119 54.346 197.559 52.197 Q 196.729 52.197 195.85 52.149 Q 194.971 52.1 194.214 51.807 Q 193.457 51.514 192.969 50.879 Q 192.481 50.244 192.481 49.121 Q 192.481 48.291 192.945 46.875 Q 193.408 45.459 194.19 44.092 Q 194.971 42.725 195.947 41.724 Q 196.924 40.723 197.901 40.723 Q 199.024 40.723 199.732 41.553 Q 200.44 42.383 200.83 43.579 Q 201.221 44.776 201.392 46.094 Q 201.563 47.412 201.563 48.389 Q 202.393 48.389 203.198 48.364 Q 204.004 48.34 204.737 48.34 Q 207.52 48.34 208.985 49.561 Q 210.449 50.781 210.449 53.565 Q 210.449 54.688 210.303 55.908 Q 210.156 57.129 209.961 58.423 Q 209.766 59.717 209.619 60.987 Q 209.473 62.256 209.473 63.477 Q 209.473 65.235 209.961 66.382 Q 210.449 67.53 211.182 68.213 Q 211.914 68.897 212.744 69.165 Q 213.574 69.434 214.258 69.434 Q 216.358 69.434 218.213 68.067 Q 220.069 66.699 221.631 64.771 Q 223.194 62.842 224.439 60.694 Q 225.392 59.049 226.102 57.719 A 60.626 60.626 0 0 0 226.237 57.465 A 43.356 43.356 0 0 1 225.907 55.897 A 51.666 51.666 0 0 1 225.781 55.225 Q 224.805 49.805 224.805 43.36 Q 224.805 41.748 224.854 39.575 Q 224.903 37.403 225.049 34.986 Q 225.196 32.569 225.489 30.005 Q 225.781 27.442 226.27 25 L 208.74 25 Q 207.959 25 207.422 24.536 Q 206.885 24.072 206.885 23.291 Q 206.885 22.51 207.422 22.046 Q 207.959 21.582 208.74 21.582 L 227.1 21.582 Q 227.588 19.824 228.247 18.36 Q 228.906 16.895 229.761 15.821 Q 230.615 14.746 231.665 14.136 Q 232.715 13.526 233.985 13.526 Q 235.205 13.526 236.109 14.136 Q 237.012 14.746 237.647 15.821 Q 238.281 16.895 238.648 18.36 Q 239.014 19.824 239.209 21.582 L 264.16 21.582 Q 264.942 21.582 265.479 22.046 Q 266.016 22.51 266.016 23.291 Q 266.016 24.072 265.479 24.536 Q 264.942 25 264.16 25 L 239.405 25 L 239.405 25.537 Q 239.405 28.516 238.965 31.885 Q 238.526 35.254 237.769 38.599 Q 237.012 41.944 236.06 45.117 Q 235.108 48.291 234.107 50.977 Q 233.106 53.662 232.129 55.64 Q 231.153 57.617 230.371 58.594 Q 231.006 60.84 231.885 62.769 Q 232.764 64.697 233.863 66.138 Q 234.961 67.578 236.231 68.408 Q 237.5 69.238 238.965 69.238 Q 240.674 69.238 242.359 67.798 Q 244.043 66.358 245.484 64.38 Q 246.924 62.403 248.023 60.376 Q 249.121 58.35 249.61 57.129 A 2.195 2.195 0 0 1 249.975 56.524 A 1.644 1.644 0 0 1 250.768 56.024 A 16.963 16.963 0 0 1 251.9 54.186 A 14.001 14.001 0 0 1 253.516 52.295 Q 255.518 50.342 257.935 49.365 Q 260.352 48.389 262.598 48.389 Q 264.112 48.389 265.381 48.804 Q 266.651 49.219 267.554 49.707 Q 268.457 50.196 268.946 50.611 Q 269.434 51.026 269.483 51.074 Q 270.02 51.709 270.02 52.393 Q 270.02 53.125 269.483 53.687 Q 268.946 54.248 268.213 54.248 Q 267.432 54.248 266.895 53.711 Q 266.797 53.613 266.455 53.345 Q 266.114 53.076 265.528 52.783 Q 264.942 52.49 264.136 52.271 Q 263.33 52.051 262.305 52.051 Q 260.791 52.051 259.082 52.735 Q 257.373 53.418 255.957 54.859 Q 254.541 56.299 253.589 58.472 Q 252.637 60.645 252.637 63.623 Q 252.637 64.551 252.832 65.503 Q 253.028 66.455 253.516 67.237 Q 254.004 68.018 254.834 68.506 Q 255.664 68.994 256.885 68.994 Q 257.764 68.994 258.911 68.408 Q 260.059 67.822 261.109 66.602 Q 262.158 65.381 263.013 63.526 Q 263.867 61.67 264.209 59.131 Q 264.307 58.447 264.844 57.984 Q 265.381 57.52 266.114 57.52 Q 266.797 57.52 267.31 58.057 Q 267.822 58.594 267.871 59.278 Q 267.92 60.205 268.067 61.89 Q 268.213 63.574 268.726 65.235 Q 269.239 66.895 270.264 68.115 Q 271.289 69.336 273.096 69.336 Q 274.268 69.336 275.415 68.701 Q 276.563 68.067 277.661 67.017 Q 278.76 65.967 279.761 64.624 Q 280.762 63.281 281.592 61.914 Q 282.422 60.547 283.057 59.278 Q 283.692 58.008 284.131 57.08 Q 284.375 56.543 284.839 56.25 A 17.528 17.528 0 0 1 285.612 54.962 A 13.063 13.063 0 0 1 287.012 53.198 Q 288.477 51.66 289.942 50.904 Q 291.406 50.147 292.139 50.147 Q 292.969 50.147 293.384 50.586 Q 293.799 51.026 293.799 51.758 Q 293.799 52.588 293.286 53.003 Q 292.774 53.418 291.992 53.809 Q 291.211 54.199 290.332 54.907 Q 289.453 55.615 288.697 56.69 Q 287.94 57.764 287.451 59.229 Q 286.963 60.694 286.963 62.5 Q 286.963 64.112 287.451 65.503 Q 287.94 66.895 288.867 67.896 Q 289.795 68.897 291.065 69.458 Q 292.334 70.02 293.897 70.02 Q 296.68 70.02 298.511 68.726 Q 300.342 67.432 301.319 65.43 Q 298.438 63.916 296.582 61.133 Q 294.727 58.35 294.727 54.883 Q 294.727 52.1 296.07 50.342 Q 297.412 48.584 299.61 48.584 Q 300.928 48.584 302.1 49.219 Q 303.272 49.854 304.175 51.221 Q 305.078 52.588 305.615 54.737 Q 306.153 56.885 306.153 59.863 Q 306.153 61.426 305.762 63.135 Q 306.055 63.184 306.348 63.184 L 306.983 63.184 Q 308.643 63.184 309.961 62.793 Q 311.28 62.403 312.354 61.621 Q 313.428 60.84 314.282 59.619 Q 315.137 58.399 315.918 56.787 Q 316.065 56.494 316.553 56.226 Q 317.041 55.957 317.53 55.957 Q 318.164 55.957 318.726 56.47 Q 319.287 56.983 319.287 57.813 Q 319.287 58.203 319.092 58.667 Q 318.897 59.131 318.701 59.522 Q 317.871 60.987 316.773 62.329 Q 315.674 63.672 314.185 64.673 Q 312.696 65.674 310.84 66.26 Q 308.985 66.846 306.69 66.797 Q 305.469 66.797 304.541 66.602 Q 303.809 68.067 302.783 69.312 Q 301.758 70.557 300.415 71.485 Q 299.072 72.412 297.412 72.949 Q 295.752 73.487 293.799 73.487 Q 291.504 73.487 289.6 72.681 Q 287.696 71.875 286.28 70.435 Q 284.864 68.994 284.082 66.968 A 11.716 11.716 0 0 1 283.623 65.465 A 50.273 50.273 0 0 1 282.959 66.406 Q 281.69 68.164 280.127 69.629 Q 278.565 71.094 276.758 72.046 Q 274.951 72.998 272.949 72.998 Q 270.117 72.998 268.189 71.192 Q 266.26 69.385 265.381 66.651 Q 263.721 69.434 261.426 71.07 Q 259.131 72.705 256.836 72.705 Q 255.03 72.705 253.565 72.046 Q 252.1 71.387 251.074 70.191 Q 250.049 68.994 249.488 67.383 A 10.152 10.152 0 0 1 249.081 65.794 A 57.03 57.03 0 0 1 248.755 66.284 Q 247.559 68.067 246.07 69.531 Q 244.58 70.996 242.871 71.973 Q 241.162 72.949 239.258 72.949 Q 235.889 72.949 233.203 70.752 Q 230.518 68.555 228.638 64.6 A 31.335 31.335 0 0 1 227.683 62.344 A 259.845 259.845 0 0 1 227.369 62.877 A 310.604 310.604 0 0 1 227.173 63.208 Q 225.684 65.723 223.78 67.92 Q 221.875 70.117 219.507 71.631 Q 217.139 73.145 214.307 73.145 Q 212.549 73.145 210.987 72.486 Q 209.424 71.826 208.277 70.581 Q 207.129 69.336 206.446 67.505 Q 205.762 65.674 205.762 63.379 Q 205.762 60.938 206.25 58.521 Q 206.739 56.104 206.739 53.906 Q 206.739 52.979 206.323 52.515 Q 205.908 52.051 204.492 52.051 L 203.003 52.051 Q 202.197 52.051 201.27 52.1 Q 201.074 53.418 200.781 54.566 Q 200.489 55.713 200.22 56.568 Q 199.951 57.422 199.756 57.959 Q 199.561 58.496 199.512 58.545 A 2.059 2.059 0 0 1 199.331 58.884 A 52.626 52.626 0 0 1 197.075 63.264 Q 194.726 67.308 192.114 69.776 Q 188.135 73.535 183.106 73.633 Q 179.883 73.633 177.539 72.388 Q 175.196 71.143 173.682 69.165 Q 172.168 67.188 171.436 64.697 A 17.575 17.575 0 0 1 171.131 63.532 A 34.134 34.134 0 0 1 170.117 64.966 Q 168.018 67.774 165.576 69.751 Q 163.135 71.729 160.474 72.779 Q 157.813 73.828 155.03 73.828 Q 152.832 73.828 150.904 73.145 Q 148.975 72.461 147.583 71.314 Q 146.192 70.166 145.386 68.726 Q 144.58 67.285 144.58 65.772 Q 144.58 65.576 144.629 65.235 Q 144.678 64.893 144.898 64.478 Q 145.117 64.063 145.532 63.697 Q 145.947 63.33 146.68 63.086 Q 148.682 62.5 150.366 61.646 Q 152.051 60.791 153.272 59.717 Q 154.492 58.643 155.176 57.349 Q 155.86 56.055 155.86 54.541 Q 155.86 53.223 154.981 52.393 Q 154.102 51.563 152.832 51.563 Q 151.514 51.563 150.244 52.466 Q 148.975 53.369 147.779 54.859 Q 146.582 56.348 145.508 58.277 Q 144.434 60.205 143.53 62.305 Q 142.627 64.405 141.944 66.48 Q 141.26 68.555 140.821 70.313 Q 140.674 70.85 140.503 71.485 Q 140.332 72.119 139.99 72.681 Q 139.649 73.242 139.16 73.609 Q 138.672 73.975 137.891 73.975 Q 137.158 73.975 136.475 73.364 Q 135.791 72.754 135.791 71.289 Q 135.791 70.996 135.816 69.043 Q 135.837 67.296 135.879 64.592 A 3181.804 3181.804 0 0 1 135.88 64.501 A 34.397 34.397 0 0 1 133.939 67.265 A 23.084 23.084 0 0 1 131.665 69.776 Q 127.686 73.535 122.656 73.633 Q 119.434 73.633 117.09 72.388 Q 114.746 71.143 113.233 69.165 Q 111.719 67.188 110.987 64.697 A 17.575 17.575 0 0 1 110.753 63.835 A 34.397 34.397 0 0 1 108.402 67.265 A 23.084 23.084 0 0 1 106.128 69.776 Q 102.149 73.535 97.119 73.633 Q 93.897 73.633 91.553 72.388 Q 89.209 71.143 87.696 69.165 Q 86.182 67.188 85.449 64.697 Q 84.717 62.207 84.717 59.717 Q 84.717 57.227 85.327 55.127 Q 85.938 53.028 87.085 51.465 Q 88.233 49.903 89.82 49.024 Q 91.406 48.145 93.311 48.145 Q 94.434 48.145 95.532 48.609 Q 96.631 49.072 97.51 49.927 Q 98.389 50.781 98.926 52.002 Q 99.463 53.223 99.463 54.785 Q 99.463 56.787 98.78 58.545 Q 98.096 60.303 96.9 61.817 Q 95.703 63.33 94.043 64.6 Q 92.383 65.869 90.479 66.797 Z M 80.811 25.244 Q 80.811 25.977 80.298 26.563 Q 79.785 27.149 79.004 27.149 Q 78.272 27.149 77.735 26.66 Q 77.197 26.172 77.1 25.342 Q 77.051 25.147 76.88 23.487 Q 76.709 21.826 75.904 19.409 Q 75.098 16.992 73.438 14.234 Q 71.778 11.475 68.872 9.131 Q 65.967 6.787 61.524 5.225 Q 57.08 3.662 50.733 3.662 Q 45.117 3.662 39.429 5.347 Q 33.74 7.031 28.516 10.083 Q 23.291 13.135 18.75 17.359 Q 14.209 21.582 10.864 26.66 Q 7.52 31.738 5.591 37.5 Q 3.662 43.262 3.662 49.365 Q 3.662 54.883 5.176 58.814 Q 6.69 62.744 9.375 65.235 Q 12.061 67.725 15.698 68.872 Q 19.336 70.02 23.535 70.02 Q 30.811 70.02 37.134 67.505 Q 43.457 64.99 48.853 60.718 Q 54.248 56.446 58.692 50.757 Q 63.135 45.069 66.651 38.77 Q 67.041 32.813 68.042 29.663 Q 69.043 26.514 71.045 26.514 Q 72.168 26.514 72.925 27.442 Q 73.682 28.369 73.682 29.834 Q 73.682 31.446 72.852 33.936 Q 72.022 36.426 70.313 39.697 Q 70.166 41.992 70.166 44.629 Q 70.166 48.487 70.484 53.076 Q 70.801 57.666 71.485 62.842 Q 73.535 61.817 74.683 61.353 Q 75.83 60.889 76.367 60.718 Q 76.905 60.547 77.051 60.572 Q 77.197 60.596 77.295 60.596 Q 78.028 60.596 78.589 61.109 Q 79.151 61.621 79.151 62.451 Q 79.151 63.037 78.809 63.501 Q 78.467 63.965 77.881 64.16 Q 77.783 64.209 76.197 64.82 Q 74.61 65.43 71.973 66.748 Q 72.217 69.385 72.364 72.071 Q 72.51 74.756 72.51 77.49 Q 72.51 83.936 71.582 89.795 Q 70.655 95.655 68.53 100.098 Q 66.406 104.541 62.891 107.154 Q 59.375 109.766 54.248 109.766 Q 51.709 109.766 49.561 108.887 Q 47.412 108.008 45.85 106.446 Q 44.287 104.883 43.408 102.71 Q 42.53 100.537 42.53 97.949 Q 42.53 94.287 43.775 90.723 Q 45.02 87.158 47.095 83.838 Q 49.17 80.518 51.856 77.564 Q 54.541 74.61 57.373 72.119 Q 60.205 69.629 62.964 67.725 Q 65.723 65.821 68.018 64.649 Q 67.383 59.766 66.992 55.054 Q 66.602 50.342 66.504 45.899 Q 62.256 52.686 57.154 57.862 Q 52.051 63.037 46.485 66.553 Q 40.918 70.069 35.034 71.851 Q 29.151 73.633 23.34 73.633 Q 18.067 73.633 13.77 72.046 Q 9.473 70.459 6.397 67.383 Q 3.321 64.307 1.66 59.766 Q 0 55.225 0 49.317 Q 0 43.067 1.953 36.988 Q 3.906 30.908 7.373 25.415 Q 10.84 19.922 15.601 15.283 Q 20.362 10.645 26.001 7.251 Q 31.641 3.858 37.915 1.929 Q 44.19 0 50.733 0 Q 57.031 0 61.67 1.441 Q 66.309 2.881 69.556 5.103 Q 72.803 7.324 74.829 9.937 Q 76.856 12.549 78.028 14.893 Q 79.004 16.895 79.566 18.75 Q 80.127 20.606 80.396 22.022 Q 80.664 23.438 80.738 24.317 Q 80.811 25.196 80.811 25.244 Z M 68.457 68.701 Q 66.016 70.069 63.404 71.948 Q 60.791 73.828 58.325 76.074 Q 55.86 78.321 53.662 80.908 Q 51.465 83.496 49.805 86.28 Q 48.145 89.063 47.193 92.017 Q 46.24 94.971 46.24 97.949 Q 46.24 99.805 46.826 101.294 Q 47.412 102.783 48.487 103.833 Q 49.561 104.883 51.026 105.469 Q 52.49 106.055 54.248 106.055 Q 61.133 106.055 64.99 98.755 Q 68.848 91.455 68.848 77.442 Q 68.848 75.342 68.75 73.169 Q 68.653 70.996 68.457 68.701 Z M 235.742 25 L 229.981 25 Q 229.297 28.028 228.882 32.495 Q 228.467 36.963 228.467 43.36 Q 228.467 46.924 228.662 49.341 Q 228.858 51.758 229.248 53.711 Q 230.713 50.488 231.909 46.753 Q 233.106 43.018 233.96 39.209 Q 234.815 35.401 235.279 31.738 Q 235.742 28.076 235.742 25 Z M 89.014 63.623 Q 90.528 62.988 91.773 62.012 Q 93.018 61.035 93.897 59.863 Q 94.776 58.692 95.264 57.398 Q 95.752 56.104 95.752 54.785 Q 95.752 53.321 95.02 52.564 Q 94.287 51.807 93.311 51.807 Q 91.992 51.807 91.065 52.539 Q 90.137 53.272 89.551 54.444 Q 88.965 55.615 88.697 57.056 Q 88.428 58.496 88.428 59.912 Q 88.428 60.791 88.599 61.768 Q 88.77 62.744 89.014 63.623 Z M 114.551 63.623 Q 116.065 62.988 117.31 62.012 Q 118.555 61.035 119.434 59.863 Q 120.313 58.692 120.801 57.398 Q 121.289 56.104 121.289 54.785 Q 121.289 53.321 120.557 52.564 Q 119.824 51.807 118.848 51.807 Q 117.53 51.807 116.602 52.539 Q 115.674 53.272 115.088 54.444 Q 114.502 55.615 114.234 57.056 Q 113.965 58.496 113.965 59.912 Q 113.965 60.791 114.136 61.768 Q 114.307 62.744 114.551 63.623 Z M 175 63.623 Q 176.514 62.988 177.759 62.012 Q 179.004 61.035 179.883 59.863 Q 180.762 58.692 181.25 57.398 Q 181.739 56.104 181.739 54.785 Q 181.739 53.321 181.006 52.564 Q 180.274 51.807 179.297 51.807 Q 177.979 51.807 177.051 52.539 Q 176.123 53.272 175.537 54.444 Q 174.951 55.615 174.683 57.056 Q 174.414 58.496 174.414 59.912 Q 174.414 60.791 174.585 61.768 Q 174.756 62.744 175 63.623 Z M 298.34 54.492 Q 298.34 55.42 298.584 56.446 Q 298.828 57.471 299.341 58.472 Q 299.854 59.473 300.611 60.376 Q 301.367 61.28 302.393 61.914 Q 302.539 60.889 302.539 59.912 Q 302.539 58.594 302.344 57.227 Q 302.149 55.86 301.782 54.712 Q 301.416 53.565 300.879 52.857 Q 300.342 52.149 299.61 52.149 Q 299.317 52.149 298.828 52.588 Q 298.34 53.028 298.34 54.492 Z M 230.86 21.582 L 235.547 21.582 Q 235.303 19.531 234.839 18.36 Q 234.375 17.188 233.789 17.188 Q 233.35 17.188 232.52 18.14 Q 231.69 19.092 230.86 21.582 Z M 195.85 48.487 L 197.998 48.487 Q 197.998 48.145 197.974 47.583 Q 197.949 47.022 197.876 46.485 Q 197.803 45.947 197.681 45.557 Q 197.559 45.166 197.412 45.166 Q 197.266 45.166 197.046 45.532 Q 196.826 45.899 196.582 46.411 Q 196.338 46.924 196.143 47.51 Q 195.947 48.096 195.85 48.487 Z M 230.03 57.276 L 230.03 57.227 L 230.03 57.276 Z"/></g></svg>